<svg width="437" height="436" viewBox="0 0 437 436" fill="none" xmlns="http://www.w3.org/2000/svg">
<path d="M301.996 109.911L104.018 307.889L27.7395 298.18L27.7395 353.659L81.5805 353.659L94.0625 410.719L146.665 394.222L129.329 333.199L327.307 135.221L394.224 146.663L415.027 89.1074L351.924 82.173L352.964 27.0443L295.408 47.8475L301.996 109.911Z" fill="white"/>
<path d="M111.314 131.786L309.292 329.764L299.584 406.042L358.495 406.042L358.495 350.092L413.772 341.176L395.626 287.117L334.603 304.453L136.625 106.475L148.066 39.5579L90.5107 18.7547L83.5763 81.858L28.4476 80.8178L49.2509 138.374L111.314 131.786Z" fill="white"/>
</svg>
