<svg width="70" height="65" viewBox="0 0 70 65" fill="none" xmlns="http://www.w3.org/2000/svg">
<path d="M7.61293 29.8481L0.167969 32.173L9.49457 35.5342L9.66481 36.0915L10.188 36.1371L9.82794 28.7728L7.16459 28.6173L7.61293 29.8481ZM8.40665 32.2943L9.00814 33.9417L3.65966 32.9754L8.40665 32.2943Z" fill="white"/>
<path d="M10.0203 21.015L10.156 24.6024L5.82424 23.7777L6.67926 22.2605L4.99804 22.2168L5.25894 23.6696L2.72973 23.2037L4.87051 20.425L2.95826 20.0732L1.25 24.4026L10.0709 27.4608L11.9512 21.7653L10.0203 21.015Z" fill="white"/>
<path d="M15.2055 14.6879L11.6617 13.8695L10.3189 14.4403L9.90643 13.1489L8.52448 12.063L7.28157 12.4553L5.06348 15.0825L12.3655 20.8349L15.5941 16.6731L15.2055 14.6879ZM9.87874 15.8861L13.8092 15.6757L13.5789 17.7128L9.87874 15.8861ZM7.18706 14.5826L7.78996 12.9933L8.87723 15.47L7.18706 14.5826Z" fill="white"/>
<path d="M15.8577 10.7897L17.8486 10.7578L17.0602 14.9254L19.7396 13.2642L19.1855 10.2265L20.3879 12.8623L23.0846 11.1904L17.226 3.92908L13.8805 6.41987L13.624 8.38853L15.8577 10.7897ZM17.1538 6.18825L18.5922 9.08237L14.7956 7.19788L17.1538 6.18825Z" fill="white"/>
<path d="M25.7149 10.5342L28.7694 9.89587L26.1948 2.34126L28.694 2.52002L27.9505 0.603271L22.1602 2.10191L22.3791 3.8087L24.6883 2.3674L25.7149 10.5342Z" fill="white"/>
<path d="M37.4773 3.9385L35.1659 3.53875L36.1615 0.807263L32.8704 0.598633L31.917 9.46025L35.6094 10.1316L38.126 6.25107L37.4773 3.9385ZM40.7157 2.7018L39.2242 2.02042L37.2149 10.4235L39.8239 10.8978L40.7157 2.7018ZM33.6112 8.7735L34.7833 4.53578L36.7759 5.53389L33.6112 8.7735Z" fill="white"/>
<path d="M46.8652 9.57924L43.7979 13.4564L46.155 14.9611L50.084 7.1799L44.6297 9.41285L47.4274 5.3158L46.4225 4.32593L40.627 11.4318L42.3753 12.5481L46.8652 9.57924ZM49.7116 5.3332L48.5361 4.88294L48.4026 5.99836L49.0508 6.19602L49.7116 5.3332Z" fill="white"/>
<path d="M11.7653 48.8898L10.1655 53.0596L13.2321 54.7505L13.6687 48.1782L18.1849 47.8946L16.0446 46.2736L12.7833 47.6077L14.9883 44.9094L13.9082 43.91L6.94141 50.1184L9.12402 52.1376L11.7653 48.8898Z" fill="white"/>
<path d="M19.7089 55.8193L22.9677 54.5585L24.6459 52.4844L23.5381 50.4677L20.0861 49.1915L16.1797 57.4605L19.0532 58.6409L19.7089 55.8193ZM21.198 50.6204L22.8765 52.0417L19.9237 54.7826L21.198 50.6204Z" fill="white"/>
<path d="M29.5325 60.8857L33.8677 52.2653L30.6814 51.6887L29.6631 56.5909L28.864 52.014L25.9844 52.3558L29.0887 58.2378L26.6366 60.7929L29.5325 60.8857Z" fill="white"/>
<path d="M36.2992 51.907L39.9806 51.7493L39.1862 50.0189L34.9219 51.71L37.2687 60.2951L40.1407 59.4053L36.2992 51.907Z" fill="white"/>
<path d="M25.2061 30.803L59.0032 25.1534L55.5956 46.4775L25.2061 30.803Z" fill="white"/>
</svg>
